<?xml version="1.0" encoding="UTF-8" standalone="no"?>
<svg
   xmlns:dc="http://purl.org/dc/elements/1.1/"
   xmlns:cc="http://creativecommons.org/ns#"
   xmlns:rdf="http://www.w3.org/1999/02/22-rdf-syntax-ns#"
   xmlns:svg="http://www.w3.org/2000/svg"
   xmlns="http://www.w3.org/2000/svg"
   xmlns:sodipodi="http://sodipodi.sourceforge.net/DTD/sodipodi-0.dtd"
   xmlns:inkscape="http://www.inkscape.org/namespaces/inkscape"
   enable-background="new 0 0 227.27 227.2705"
   height="14"
   viewBox="0 0 14 14.000001"
   width="14"
   version="1.1"
   id="svg30"
   sodipodi:docname="haxe.svg"
   inkscape:version="1.0.2 (e86c870879, 2021-01-15)">
  <metadata
     id="metadata36">
    <rdf:RDF>
      <cc:Work
         rdf:about="">
        <dc:format>image/svg+xml</dc:format>
        <dc:type
           rdf:resource="http://purl.org/dc/dcmitype/StillImage" />
        <dc:title></dc:title>
      </cc:Work>
    </rdf:RDF>
  </metadata>
  <defs
     id="defs34" />
  <sodipodi:namedview
     pagecolor="#ffffff"
     bordercolor="#666666"
     borderopacity="1"
     objecttolerance="10"
     gridtolerance="10"
     guidetolerance="10"
     inkscape:pageopacity="0"
     inkscape:pageshadow="2"
     inkscape:window-width="1920"
     inkscape:window-height="1011"
     id="namedview32"
     showgrid="false"
     fit-margin-top="0"
     fit-margin-left="0"
     fit-margin-right="0"
     fit-margin-bottom="0"
     inkscape:zoom="25.168247"
     inkscape:cx="-2.6813108"
     inkscape:cy="8.1202027"
     inkscape:window-x="0"
     inkscape:window-y="0"
     inkscape:window-maximized="1"
     inkscape:current-layer="g28"
     inkscape:document-rotation="0" />
  <g
     transform="matrix(0.24008588,0,0,0.24008588,-29.864211,-268.49858)"
     id="g28">
    <path
       d="m 153.54527,1125.6329 -16.33394,-1.4926 -12.82162,-5.7964 h 14.57745 l 14.57811,7.2819"
       fill="#fbc712"
       id="path2"
       style="fill:#d6d6d6;fill-opacity:1;stroke-width:0.0813402" />
    <path
       d="m 153.54527,1125.6329 17.3111,-2.0052 11.84578,-5.2838 h -14.57926 l -14.57762,7.2819"
       fill="#fbc712"
       id="path4"
       style="fill:#dbdbdb;fill-opacity:1;stroke-width:0.0813402" />
    <path
       d="m 153.54527,1169.3679 14.57761,1.7353 14.57927,5.5532 h -14.57926 l -14.57762,-7.2968"
       fill="#f6871f"
       id="path6"
       style="fill:#d6d6d6;fill-opacity:1;stroke-width:0.0813402" />
    <path
       d="m 153.54527,1169.3679 -14.57812,1.5669 -14.57745,5.7216 h 14.57745 l 14.57812,-7.2968"
       fill="#f15e22"
       id="path8"
       style="fill:#d1d1d1;fill-opacity:1;stroke-width:0.0813402" />
    <path
       d="m 131.67835,1147.5003 -2.15152,17.1164 -5.13712,12.0397 v -14.5774 l 7.28864,-14.587"
       fill="#fcee23"
       id="path10"
       style="fill:#e5e5e5;fill-opacity:1;stroke-width:0.0813402" />
    <path
       d="m 131.67835,1147.5003 -1.63904,-15.6753 -5.6496,-13.4811 v 14.578 l 7.28864,14.5701"
       fill="#fcee23"
       id="path12"
       style="fill:#ebebeb;fill-opacity:1;stroke-width:0.0813402" />
    <path
       d="m 175.41219,1147.5003 2.10355,-15.8462 5.18526,-13.3102 v 14.578 l -7.28881,14.5701"
       fill="#f04923"
       id="path14"
       style="fill:#c7c7c7;fill-opacity:1;stroke-width:0.0813402" />
    <path
       d="m 175.41219,1147.5003 1.422,16.0914 5.86681,13.0647 v -14.5774 l -7.2888,-14.587"
       fill="#f04923"
       id="path16"
       style="fill:#c2c2c2;fill-opacity:1;stroke-width:0.0813402" />
    <path
       d="m 124.38971,1118.3439 29.15556,7.289 v 21.8552 h -21.86692 l -7.28864,-29.1293"
       fill="#f8b218"
       id="path18"
       style="fill:#e0e0e0;fill-opacity:1;stroke-width:0.0813402" />
    <path
       d="m 124.38971,1176.6564 7.28864,-29.1561 21.86692,-0.012 v 21.8632 l -29.15555,7.2753"
       fill="#f89d1c"
       id="path20"
       style="fill:#dbdbdb;fill-opacity:1;stroke-width:0.0813402" />
    <path
       d="m 182.70216,1118.3439 -7.28997,29.1554 -21.86692,-0.011 v -21.8563 l 29.15688,-7.273"
       fill="#f37321"
       id="path22"
       style="fill:#d1d1d1;fill-opacity:1;stroke-width:0.0813402" />
    <path
       d="m 182.70216,1176.6564 -29.15689,-7.2885 v -21.8798 l 21.86693,0.012 7.28997,29.1263"
       fill="#f15e22"
       id="path24"
       style="fill:#cccccc;fill-opacity:1;stroke-width:0.0813402" />
    <path
       d="m 153.54527,1125.6329 -21.86692,21.8674 21.86692,21.8676 21.86693,-21.8686 -21.86693,-21.8735"
       fill="#f6871f"
       id="path26"
       style="fill:#d6d6d6;fill-opacity:1;stroke-width:0.0813402" />
  </g>
</svg>
